<?xml version="1.0" encoding="UTF-8" standalone="no"?>
<svg
   xmlns:dc="http://purl.org/dc/elements/1.1/"
   xmlns:cc="http://creativecommons.org/ns#"
   xmlns:rdf="http://www.w3.org/1999/02/22-rdf-syntax-ns#"
   xmlns:svg="http://www.w3.org/2000/svg"
   xmlns="http://www.w3.org/2000/svg"
   xmlns:xlink="http://www.w3.org/1999/xlink"
   xmlns:sodipodi="http://sodipodi.sourceforge.net/DTD/sodipodi-0.dtd"
   xmlns:inkscape="http://www.inkscape.org/namespaces/inkscape"
   width="100"
   height="89"
   version="1.1"
   id="svg14"
   sodipodi:docname="method-draw-image.svg"
   inkscape:version="0.92.3 (2405546, 2018-03-11)">
  <defs
     id="defs18">
    <linearGradient
       inkscape:collect="always"
       id="linearGradient4535">
      <stop
         style="stop-color:#673ab7;stop-opacity:1"
         offset="0"
         id="stop4531" />
      <stop
         style="stop-color:#3f51b5;stop-opacity:1"
         offset="1"
         id="stop4533" />
    </linearGradient>
    <linearGradient
       inkscape:collect="always"
       xlink:href="#linearGradient4535"
       id="linearGradient4537"
       x1="12.590282"
       y1="44.499998"
       x2="87.409722"
       y2="44.499998"
       gradientUnits="userSpaceOnUse" />
  </defs>
  <sodipodi:namedview
     pagecolor="#ffffff"
     bordercolor="#666666"
     borderopacity="1"
     objecttolerance="10"
     gridtolerance="10"
     guidetolerance="10"
     inkscape:pageopacity="0"
     inkscape:pageshadow="2"
     inkscape:window-width="1366"
     inkscape:window-height="705"
     id="namedview16"
     showgrid="false"
     showguides="false"
     inkscape:zoom="2.6516854"
     inkscape:cx="-11.28178"
     inkscape:cy="44.5"
     inkscape:window-x="-8"
     inkscape:window-y="-8"
     inkscape:window-maximized="1"
     inkscape:current-layer="svg14" />
  <metadata
     id="metadata5">image/svg+xml<rdf:RDF>
  <cc:Work
     rdf:about="">
    <dc:format>image/svg+xml</dc:format>
    <dc:type
       rdf:resource="http://purl.org/dc/dcmitype/StillImage" />
  </cc:Work>
</rdf:RDF>
</metadata>
  <g
     id="g6">
    <title
       id="title3">background</title>
    <rect
       fill="none"
       id="canvas_background"
       height="91"
       width="102"
       y="-1"
       x="-1" />
  </g>
  <g
     id="g12"
     style="fill-opacity:1;fill:url(#linearGradient4537)">
    <title
       id="title8"
       style="fill-opacity:1;fill:url(#linearGradient4537)">Layer 1</title>
    <g
       stroke="null"
       id="layer1"
       style="fill-opacity:1;fill:url(#linearGradient4537)">
      <path
         stroke="null"
         fill="#000000"
         stroke-width="0.352778"
         id="path3726"
         d="m47.122332,85.693035c-1.217477,-0.424274 -5.600391,-2.785274 -9.739819,-5.246658c-4.139415,-2.461397 -10.116116,-5.919688 -13.281552,-7.685101c-7.803757,-4.35228 -9.357988,-5.483116 -10.517424,-7.652322c-0.984471,-1.841878 -0.993255,-2.024824 -0.993255,-20.673861c0,-18.649049 0.008785,-18.831983 0.993255,-20.673861c1.186794,-2.220396 2.584244,-3.213501 11.845575,-8.41808c3.89593,-2.189399 9.972236,-5.708542 13.502925,-7.820335c3.530677,-2.11178 7.465335,-4.147686 8.74369,-4.524208c2.098565,-0.618126 2.549983,-0.617825 4.648549,0.003137c1.278355,0.378204 4.094664,1.737102 6.258512,3.019761l3.934231,2.332112l-1.94201,0.244527c-2.30818,0.290634 -2.507742,0.392749 -13.12782,6.716205c-4.561593,2.716038 -11.082917,6.508435 -14.491851,8.427492c-7.069398,3.979723 -8.461564,5.130889 -9.107889,7.531169c-0.284434,1.056266 -0.4088,6.494003 -0.324982,14.208747c0.15151,13.945571 0.129423,13.840394 3.36978,16.049533c0.899749,0.61342 6.015227,3.630395 11.367753,6.704421c8.541053,4.905224 9.977582,5.589121 11.740009,5.589121c1.762427,0 3.198943,-0.683898 11.739996,-5.589121c11.449701,-6.575713 12.743868,-7.423244 13.802695,-9.039218c0.726466,-1.108711 0.799052,-2.45521 0.799052,-14.820108c0,-13.045998 -0.037272,-13.650457 -0.912788,-14.823183c-1.497658,-2.005937 -3.098635,-2.938114 -5.431048,-3.162223c-2.504943,-0.240699 -2.100649,-0.432167 -16.01344,7.583852c-4.504669,2.5954 -8.727488,5.304637 -9.38404,6.02051c-2.203253,2.402313 -2.173837,5.869653 0.067567,7.963424c1.100315,1.027854 6.153259,4.002576 6.798881,4.002576c0.129875,0 -0.070654,-0.615026 -0.445683,-1.366729c-0.808175,-1.620028 -0.533291,-4.089958 0.627437,-5.637675c0.808301,-1.077776 15.400096,-9.817965 16.392147,-9.818567c0.425466,-0.000251 0.553395,2.186387 0.553395,9.458409c0,10.912771 0.073791,10.688323 -4.328461,13.167063c-1.393522,0.784645 -4.725126,2.731575 -7.403579,4.326541c-4.064507,2.420335 -5.199371,2.899914 -6.86213,2.899914c-1.662759,0 -2.797623,-0.479579 -6.862143,-2.899914c-2.678453,-1.594966 -6.010069,-3.541896 -7.403591,-4.326541c-4.40987,-2.483032 -4.328461,-2.232343 -4.328461,-13.328713c0,-11.096043 -0.081823,-10.844037 4.328461,-13.330633c4.13791,-2.333015 18.137607,-10.50958 22.826602,-13.331951c8.718515,-5.247762 10.140863,-5.424873 16.556896,-2.061594c7.156943,3.751661 10.132543,5.864169 11.275602,8.005064c1.014175,1.899518 1.016346,1.943679 1.016346,20.719114c0,18.649036 -0.008785,18.831983 -0.993268,20.673861c-1.159423,2.169206 -2.713654,3.300042 -10.517411,7.652322c-3.165436,1.765414 -9.142136,5.223705 -13.281564,7.685101c-6.911575,4.109774 -10.912494,6.018063 -12.61747,6.018063c-0.365253,0 -1.660199,-0.347132 -2.877676,-0.771405l0,-0.000038z"
         style="fill-opacity:1;fill:url(#linearGradient4537)" />
    </g>
  </g>
</svg>
